<?xml version="1.0" encoding="UTF-8" standalone="no"?>
<svg width="117px" height="122px" viewBox="0 0 117 122" version="1.1" xmlns="http://www.w3.org/2000/svg" xmlns:xlink="http://www.w3.org/1999/xlink" xmlns:sketch="http://www.bohemiancoding.com/sketch/ns">
    <!-- Generator: Sketch 3.2.2 (9983) - http://www.bohemiancoding.com/sketch -->
    <title>rbm-logo</title>
    <desc>Created with Sketch.</desc>
    <defs></defs>
    <g id="Page-1" stroke="none" stroke-width="1" fill="none" fill-rule="evenodd" sketch:type="MSPage">
        <g id="RBM-Logo" sketch:type="MSArtboardGroup" transform="translate(-73.000000, -53.000000)">
            <g id="rbm-logo" sketch:type="MSLayerGroup" transform="translate(73.000000, 53.000000)">
                <path d="M83.5579124,6.7338588 L89.2911682,2.52275162 C91.3103692,1.0341742 93.6182953,0.423073998 94.7675712,1.62372921 L104.293625,11.5756527 C105.448526,12.7782666 104.827954,15.1599905 103.429325,17.2929652 L99.1059473,23.7349799 C101.537613,28.104738 103.281212,32.7741704 104.344246,37.5748326 L112.031083,38.9811465 C114.468373,39.4198851 116.521321,40.6910519 116.517571,42.391164 L116.517571,56.4640966 C116.517571,58.1700846 114.468373,59.3962023 112.023584,59.874114 L103.997401,61.3411463 C102.855624,65.9106872 101.076402,70.3431223 98.6747344,74.4895939 L103.429325,81.558378 C104.857951,83.6658902 105.444776,86.0828699 104.29925,87.2815665 L94.7675712,97.23349 C93.6220449,98.4361038 91.3403666,97.7917065 89.2911682,96.3285916 L82.5267513,91.3614438 C78.550219,93.8783148 74.3093346,95.731202 69.9334618,96.9181466 L68.5310826,105.310981 C68.1148685,107.867025 66.8999732,109.998041 65.2707387,110 L51.8037744,109.998041 C50.1689153,110.007835 48.9933917,107.859191 48.5359311,105.31294 L47.1935468,97.2765804 C42.5870689,96.1758165 38.1268283,94.3503505 33.9403142,91.8119343 L27.7758455,96.3285916 C25.7660187,97.823045 23.4487185,98.4380625 22.2994425,97.2354486 L12.7733886,87.2854838 C11.6241127,86.0828699 12.2446842,83.6991874 13.6414388,81.5603367 L17.6704665,75.5668539 C14.8975805,71.0384447 12.9158763,66.1418084 11.6878572,61.0806452 L5.03968022,59.874114 C2.6023903,59.4412514 0.553191927,58.168126 0.556941604,56.4601792 L0.556941604,42.3950813 C0.556941604,40.6910519 2.60613997,39.4610168 5.04155506,38.9870224 L11.3428869,37.8314163 C12.4715396,32.5371732 14.44012,27.407457 17.2411285,22.6577199 L13.6414388,17.2968825 C12.2053126,15.1913289 11.6241127,12.7743493 12.7771383,11.5697768 L22.2994425,1.6198119 C23.4449688,0.423073998 25.7360213,1.05963671 27.7777203,2.52471028 L32.909153,6.29120288 C36.227617,4.15431082 41.2728071,1.80000811 43.3538778,1.28488198 C41.0909478,5.39413912 44.7037614,11.6598749 44.7037614,11.6598749 C30.3162515,17.1930738 20.0627603,31.6322748 20.0590106,48.5785535 C20.0627603,70.3019906 36.9156827,87.9083359 57.7057657,87.9083359 C78.4995984,87.9063772 95.3506459,70.3019906 95.3506459,48.5785535 C95.3506459,31.6322748 85.0934051,17.1930738 70.70777,11.6618335 C70.70777,11.6618335 73.8612482,6.63788473 72.0576537,1.21045311 C76.0716827,2.4933718 79.9301001,4.31492049 83.5579124,6.7338588 Z" id="Gear" fill="#A4CD39" sketch:type="MSShapeGroup" transform="translate(58.537257, 55.493845) rotate(-180.000000) translate(-58.537257, -55.493845) "></path>
                <path d="M59.5257635,121.694411 C52.2841388,121.694404 43.5765124,117.465695 39.5624834,111.942289 C31.0413429,100.200155 35.5278312,86.4836977 40.6292664,80.1298225 C44.5945497,75.1881372 44.5889251,75.6092479 44.5851755,74.5613677 L44.5251806,73.6740973 C44.3226981,71.5195773 43.8821111,66.7149978 47.0168409,63.6497035 C46.8968512,63.2325101 46.8124835,62.8016061 46.8124835,62.343281 C46.8124835,60.3944197 48.0330033,58.7648192 49.7147333,58.1928921 C48.2111129,56.7493637 47.3074408,54.9532775 47.3074408,53.0024577 C47.3074408,50.5560982 48.7154445,46.9032076 50.959626,45.3382426 C49.8759694,44.3843779 49.242274,43.2307304 49.242274,41.9889434 C49.242274,38.7101558 53.6687675,36.0463857 59.1320466,36.0463857 C64.5934509,36.0463857 69.0255688,38.7101558 69.0255688,41.9889434 C69.0255688,43.2307304 68.3862489,44.3843779 67.306342,45.3382426 C69.5523984,46.9032076 70.9585272,50.5560982 70.9585272,53.0024577 C70.9585272,54.9532775 70.0548551,56.7493637 68.5493599,58.1948507 C70.2329648,58.7648192 71.4534846,60.3944197 71.4534846,62.343281 C71.4534846,64.7661366 69.5748965,66.7267497 67.2613459,66.7267497 L58.1383823,66.7267497 L58.1383823,74.0991253 C58.1383823,75.1332949 58.7514544,75.5250258 59.6345033,75.5250258 L60.9993857,75.5250258 C64.8165566,75.5250258 67.1938517,77.6188274 67.1938517,81.0484315 C67.1938517,84.4819528 64.336598,85.7100292 62.4130138,86.3818477 C60.4894296,87.0517075 59.3401537,87.9722751 59.5257627,89.5352814 C59.7132465,91.096329 61.610583,91.850411 65.7802236,91.9894755 C66.2639319,92.0051447 66.680146,92.1128707 67.0569885,92.2773977 C68.9318269,92.9688027 70.300459,94.8961188 70.300459,97.1955791 C70.300459,100.074801 68.176267,102.407559 65.5571178,102.407559 C63.5960368,102.407559 61.9143068,101.099178 61.1962437,99.2364971 C60.4669315,101.099178 58.7889512,102.407559 56.8259954,102.407559 C54.6043119,102.407559 52.7500967,100.71724 52.2382658,98.4452007 L52.0845291,98.4452007 L52.0845291,89.7487747 C52.0845291,86.8636767 53.2394295,83.7200362 56.203549,82.513505 C56.203549,82.513505 53.4831585,81.1346122 53.4831585,77.4307966 L53.4831585,66.7267497 L51.1733576,66.7267497 C51.0439937,66.8697315 50.9052557,67.00292 50.7458944,67.1145633 C49.1297837,68.2564589 49.2272753,70.8360069 49.4466314,73.1687644 L49.5291243,74.4085927 C49.5403734,76.9156705 49.1485321,77.5502745 44.41644,83.4497419 C40.4942781,88.3385435 36.7783484,99.5518405 43.5015189,108.818235 C46.6662461,113.172324 51.8258014,115.951655 57.6584236,116.441318 C63.9897529,116.972114 70.2292151,114.678529 74.7756982,110.146203 C83.4337019,101.524206 77.7079455,90.5851202 72.6515063,83.1069773 C68.14252,76.4455934 66.8376324,75.5446123 66.8376324,71.566585 C66.8376324,70.1426432 67.9419122,68.9831197 69.314294,68.9831197 C70.6810512,68.9831197 71.785331,70.1426432 71.785331,71.566585 C71.785331,73.9776887 72.492145,73.924805 76.6861585,80.1278638 C79.2284394,83.8806459 82.3069241,88.9241812 83.6080619,94.6728322 C85.301041,102.154892 83.7243008,108.803188 78.1879041,113.885274 C72.6515074,118.96736 66.8376341,121.694419 59.5257635,121.694411 Z" id="Lightbulb" fill="#12538F" sketch:type="MSShapeGroup" transform="translate(59.520371, 78.870398) scale(-1, 1) rotate(-180.000000) translate(-59.520371, -78.870398) "></path>
            </g>
        </g>
    </g>
</svg>